<svg width="57" height="56" viewBox="0 0 57 56" fill="none" xmlns="http://www.w3.org/2000/svg">
<path d="M28.5 0L56.0772 27.5772L28.5 55.1543L0.922836 27.5772L28.5 0Z" fill="#DE561C"/>
<path d="M34.1016 36H22.4648V33.7734L27.9844 27.8438C28.4141 27.375 28.7773 26.9492 29.0742 26.5664C29.3711 26.1836 29.6094 25.8359 29.7891 25.5234C29.9766 25.2031 30.1094 24.9062 30.1875 24.6328C30.2734 24.3594 30.3164 24.0938 30.3164 23.8359C30.3164 23.4531 30.2617 23.1133 30.1523 22.8164C30.043 22.5195 29.8867 22.2695 29.6836 22.0664C29.4883 21.8555 29.25 21.6953 28.9688 21.5859C28.6953 21.4766 28.3906 21.4219 28.0547 21.4219C27.1562 21.4219 26.4844 21.6719 26.0391 22.1719C25.6016 22.6719 25.3828 23.3711 25.3828 24.2695H22.1133C22.1133 23.5117 22.2578 22.7969 22.5469 22.125C22.8359 21.4453 23.2422 20.8516 23.7656 20.3438C24.2969 19.8359 24.9336 19.4375 25.6758 19.1484C26.4258 18.8516 27.2539 18.7031 28.1602 18.7031C29.0273 18.7031 29.793 18.8242 30.457 19.0664C31.1289 19.3086 31.6875 19.6484 32.1328 20.0859C32.5859 20.5234 32.9297 21.0508 33.1641 21.668C33.3984 22.2773 33.5156 22.9531 33.5156 23.6953C33.5156 24.2578 33.4258 24.7969 33.2461 25.3125C33.0742 25.8203 32.8242 26.3242 32.4961 26.8242C32.1758 27.3242 31.7891 27.8359 31.3359 28.3594C30.8828 28.875 30.3789 29.418 29.8242 29.9883L26.6133 33.3867H34.1016V36Z" fill="white"/>
</svg>
