<svg width="57" height="56" viewBox="0 0 57 56" fill="none" xmlns="http://www.w3.org/2000/svg">
<path d="M28.5 0L56.0772 27.5772L28.5 55.1543L0.922836 27.5772L28.5 0Z" fill="#DE561C"/>
<path d="M26.2266 26.0391H27.9961C28.8867 26.0391 29.5469 25.8164 29.9766 25.3711C30.4062 24.918 30.6211 24.3281 30.6211 23.6016C30.6211 23.2656 30.5703 22.9609 30.4688 22.6875C30.375 22.4062 30.2305 22.168 30.0352 21.9727C29.8398 21.7695 29.5898 21.6133 29.2852 21.5039C28.9883 21.3945 28.6406 21.3398 28.2422 21.3398C27.9141 21.3398 27.6055 21.3867 27.3164 21.4805C27.0352 21.5742 26.7852 21.7109 26.5664 21.8906C26.3555 22.0625 26.1875 22.2734 26.0625 22.5234C25.9375 22.7734 25.875 23.0547 25.875 23.3672H22.6172C22.6172 22.6719 22.7578 22.0391 23.0391 21.4688C23.3281 20.8984 23.7227 20.4102 24.2227 20.0039C24.7227 19.5898 25.3086 19.2695 25.9805 19.043C26.6602 18.8164 27.3906 18.7031 28.1719 18.7031C29.0156 18.7031 29.7891 18.8086 30.4922 19.0195C31.1953 19.2227 31.7969 19.5312 32.2969 19.9453C32.7969 20.3516 33.1836 20.8594 33.457 21.4688C33.7383 22.0703 33.8789 22.7695 33.8789 23.5664C33.8789 23.9336 33.8242 24.2969 33.7148 24.6562C33.6055 25.0078 33.4453 25.3438 33.2344 25.6641C33.0234 25.9844 32.7617 26.2812 32.4492 26.5547C32.1367 26.8203 31.7773 27.0508 31.3711 27.2461C31.8477 27.418 32.2578 27.6367 32.6016 27.9023C32.9531 28.168 33.2422 28.4727 33.4688 28.8164C33.6953 29.1523 33.8633 29.5234 33.9727 29.9297C34.082 30.3359 34.1367 30.7656 34.1367 31.2188C34.1367 32.0156 33.9844 32.7266 33.6797 33.3516C33.375 33.9766 32.957 34.5039 32.4258 34.9336C31.8945 35.3555 31.2617 35.6797 30.5273 35.9062C29.8008 36.125 29.0156 36.2344 28.1719 36.2344C27.4453 36.2344 26.7344 36.1367 26.0391 35.9414C25.3516 35.7383 24.7383 35.4375 24.1992 35.0391C23.6602 34.6328 23.2266 34.125 22.8984 33.5156C22.5781 32.9062 22.418 32.1875 22.418 31.3594H25.6758C25.6758 31.6875 25.7383 31.9922 25.8633 32.2734C25.9883 32.5469 26.1641 32.7852 26.3906 32.9883C26.625 33.1836 26.8984 33.3398 27.2109 33.457C27.5234 33.5664 27.8672 33.6211 28.2422 33.6211C29.0703 33.6211 29.7188 33.4023 30.1875 32.9648C30.6562 32.5273 30.8906 31.9336 30.8906 31.1836C30.8906 30.7227 30.8242 30.3281 30.6914 30C30.5586 29.6719 30.3633 29.4023 30.1055 29.1914C29.8555 28.9805 29.5508 28.8242 29.1914 28.7227C28.8398 28.6211 28.4414 28.5703 27.9961 28.5703H26.2266V26.0391Z" fill="white"/>
</svg>
