<svg width="34" height="34" viewBox="0 0 34 34" fill="none" xmlns="http://www.w3.org/2000/svg">
<path d="M33.2949 16.7271L18.8039 1.39186L17.8326 0.363427C17.6113 0.130646 17.312 0 17.0001 0C16.6881 0 16.3888 0.130646 16.1675 0.363427L0.705204 16.7271C0.47843 16.9662 0.299207 17.2511 0.178113 17.5648C0.0570196 17.8785 -0.00349009 18.2147 0.000155447 18.5536C0.0151565 19.9513 1.11398 21.0671 2.43407 21.0671H4.02793V34H29.9722V21.0671H31.5998C32.2411 21.0671 32.8449 20.8011 33.2987 20.3206C33.5221 20.0848 33.6992 19.8044 33.8195 19.4956C33.9399 19.1869 34.0012 18.8559 34 18.5219C34 17.8468 33.7487 17.2075 33.2949 16.7271ZM19.1002 31.141H14.8999V23.0406H19.1002V31.141ZM27.272 18.2082V31.141H21.5004V22.0876C21.5004 21.2101 20.8291 20.4993 20.0003 20.4993H13.9999C13.1711 20.4993 12.4998 21.2101 12.4998 22.0876V31.141H6.72812V18.2082H3.12787L17.0038 3.52815L17.8701 4.4454L30.876 18.2082H27.272Z" fill="white"/>
</svg>
