<svg width="34" height="34" viewBox="0 0 34 34" fill="none" xmlns="http://www.w3.org/2000/svg">
<path d="M17 15.3333C16.558 15.3333 16.134 15.5089 15.8215 15.8215C15.5089 16.1341 15.3333 16.558 15.3333 17V23.6667C15.3333 24.1087 15.5089 24.5326 15.8215 24.8452C16.134 25.1578 16.558 25.3333 17 25.3333C17.442 25.3333 17.8659 25.1578 18.1785 24.8452C18.4911 24.5326 18.6667 24.1087 18.6667 23.6667V17C18.6667 16.558 18.4911 16.1341 18.1785 15.8215C17.8659 15.5089 17.442 15.3333 17 15.3333ZM17.6333 8.80001C17.2276 8.63331 16.7724 8.63331 16.3667 8.80001C16.1621 8.87933 15.9752 8.99828 15.8167 9.15001C15.6694 9.31201 15.5511 9.49804 15.4667 9.70001C15.3734 9.89781 15.3277 10.1147 15.3333 10.3333C15.3321 10.5527 15.3741 10.7701 15.457 10.9732C15.54 11.1763 15.6622 11.3609 15.8167 11.5167C15.9787 11.6639 16.1647 11.7823 16.3667 11.8667C16.6192 11.9704 16.8933 12.0105 17.1649 11.9835C17.4365 11.9565 17.6974 11.8632 17.9245 11.7118C18.1516 11.5604 18.3381 11.3555 18.4675 11.1151C18.5969 10.8748 18.6653 10.6063 18.6667 10.3333C18.6605 9.89207 18.4879 9.4694 18.1833 9.15001C18.0248 8.99828 17.8379 8.87933 17.6333 8.80001ZM17 0.333344C13.7036 0.333344 10.4813 1.31083 7.74048 3.14218C4.99966 4.97354 2.86346 7.57652 1.60199 10.622C0.340534 13.6674 0.0104788 17.0185 0.653566 20.2515C1.29665 23.4845 2.884 26.4542 5.21487 28.7851C7.54575 31.116 10.5155 32.7033 13.7485 33.3464C16.9815 33.9895 20.3326 33.6595 23.378 32.398C26.4235 31.1365 29.0265 29.0003 30.8578 26.2595C32.6892 23.5187 33.6667 20.2964 33.6667 17C33.6667 14.8113 33.2356 12.644 32.398 10.622C31.5604 8.59986 30.3327 6.76254 28.7851 5.2149C27.2375 3.66725 25.4001 2.4396 23.378 1.60202C21.356 0.76444 19.1887 0.333344 17 0.333344V0.333344ZM17 30.3333C14.3629 30.3333 11.785 29.5514 9.59238 28.0863C7.39973 26.6212 5.69076 24.5388 4.68159 22.1025C3.67243 19.6661 3.40838 16.9852 3.92285 14.3988C4.43732 11.8124 5.7072 9.43662 7.5719 7.57192C9.4366 5.70722 11.8124 4.43734 14.3988 3.92287C16.9852 3.4084 19.6661 3.67245 22.1024 4.68162C24.5388 5.69079 26.6212 7.39975 28.0862 9.59241C29.5513 11.7851 30.3333 14.3629 30.3333 17C30.3333 20.5362 28.9286 23.9276 26.4281 26.4281C23.9276 28.9286 20.5362 30.3333 17 30.3333V30.3333Z" fill="white"/>
</svg>
