<svg width="40" height="40" viewBox="0 0 191 191" fill="none" xmlns="http://www.w3.org/2000/svg">
<path d="M95.505 0C42.7539 0 5.18195e-07 42.7539 5.18195e-07 95.495C-0.00130604 108.037 2.46811 120.457 7.26722 132.045C12.0663 143.633 19.1011 154.161 27.9698 163.03C36.8386 171.899 47.3675 178.934 58.9553 183.733C70.543 188.532 82.9627 191.001 95.505 191C148.236 191 191 148.246 191 95.495C191 42.7539 148.236 0 95.505 0V0ZM104.418 34.4777C113.729 34.4777 116.464 39.8791 116.464 46.0565C116.464 53.7657 110.297 60.898 99.7625 60.898C90.9491 60.898 86.7513 56.4714 87.0099 49.1401C87.0099 42.9628 92.1726 34.4777 104.418 34.4777V34.4777ZM80.564 152.693C74.1976 152.693 69.5522 148.823 73.9987 131.863L81.2901 101.772C82.5535 96.9573 82.7624 95.0275 81.2901 95.0275C79.3902 95.0275 71.1239 98.3499 66.2497 101.633L63.0764 96.4301C78.5447 83.5084 96.3306 75.9285 103.94 75.9285C110.307 75.9285 111.361 83.4487 108.188 95.0275L99.8321 126.66C98.3499 132.251 98.9866 134.18 100.469 134.18C102.379 134.18 108.626 131.873 114.773 127.028L118.374 131.863C103.324 146.903 86.9204 152.693 80.564 152.693Z" fill="white"/>
</svg>
