<svg width="50" height="44" viewBox="0 0 50 44" fill="none" xmlns="http://www.w3.org/2000/svg">
<path d="M2.95312 41.4482H7.61523V43H1.02539V33.0469H2.95312V41.4482ZM13.6609 43.1367C13.0913 43.1367 12.574 43.0433 12.1092 42.8564C11.6443 42.6696 11.2456 42.4167 10.9129 42.0977C10.5802 41.7741 10.3227 41.3958 10.1404 40.9629C9.9627 40.5254 9.87383 40.0583 9.87383 39.5615V39.2881C9.87383 38.723 9.9627 38.208 10.1404 37.7432C10.3182 37.2738 10.5665 36.8704 10.8855 36.5332C11.2046 36.196 11.5828 35.9339 12.0203 35.7471C12.4578 35.5602 12.934 35.4668 13.449 35.4668C13.9822 35.4668 14.4562 35.5557 14.8709 35.7334C15.2902 35.9066 15.6434 36.1527 15.9305 36.4717C16.2221 36.7907 16.4432 37.1758 16.5936 37.627C16.7439 38.0736 16.8191 38.568 16.8191 39.1104V39.917H11.8016C11.838 40.1676 11.9109 40.3978 12.0203 40.6074C12.1342 40.8125 12.2778 40.9902 12.451 41.1406C12.6242 41.291 12.8224 41.4072 13.0457 41.4893C13.269 41.5713 13.5128 41.6123 13.7771 41.6123C13.964 41.6123 14.1486 41.5941 14.3309 41.5576C14.5177 41.5212 14.6954 41.4688 14.8641 41.4004C15.0327 41.3275 15.1899 41.2386 15.3357 41.1338C15.4816 41.029 15.6092 40.9059 15.7186 40.7646L16.6687 41.79C16.5503 41.9587 16.3953 42.125 16.2039 42.2891C16.0171 42.4486 15.7937 42.5921 15.534 42.7197C15.2788 42.8428 14.9939 42.943 14.6795 43.0205C14.365 43.098 14.0255 43.1367 13.6609 43.1367ZM13.4354 37.0049C13.2212 37.0049 13.0252 37.0436 12.8475 37.1211C12.6697 37.194 12.5125 37.3011 12.3758 37.4424C12.2436 37.5837 12.132 37.7523 12.0408 37.9482C11.9497 38.1442 11.8813 38.363 11.8357 38.6045H14.9529V38.4541C14.9438 38.2536 14.9051 38.0645 14.8367 37.8867C14.7684 37.709 14.6704 37.5563 14.5428 37.4287C14.4152 37.2965 14.2579 37.194 14.0711 37.1211C13.8888 37.0436 13.6769 37.0049 13.4354 37.0049ZM23.8014 43C23.7558 42.9089 23.7171 42.804 23.6852 42.6855C23.6533 42.5671 23.6259 42.4417 23.6031 42.3096C23.4983 42.4235 23.3775 42.5306 23.2408 42.6309C23.1041 42.7311 22.9514 42.82 22.7828 42.8975C22.6187 42.9704 22.4365 43.0273 22.2359 43.0684C22.0354 43.1139 21.8189 43.1367 21.5865 43.1367C21.2083 43.1367 20.8596 43.082 20.5406 42.9727C20.2262 42.8633 19.955 42.7106 19.7271 42.5146C19.4993 42.3187 19.3215 42.0863 19.1939 41.8174C19.0663 41.5439 19.0025 41.2477 19.0025 40.9287C19.0025 40.1494 19.2919 39.5479 19.8707 39.124C20.454 38.6956 21.3222 38.4814 22.4752 38.4814H23.5348V38.0439C23.5348 37.6885 23.4186 37.4082 23.1861 37.2031C22.9537 36.9935 22.6187 36.8887 22.1812 36.8887C21.7939 36.8887 21.5113 36.973 21.3336 37.1416C21.1559 37.3057 21.067 37.5267 21.067 37.8047H19.1666C19.1666 37.4902 19.235 37.1917 19.3717 36.9092C19.513 36.6266 19.7158 36.3783 19.9801 36.1641C20.249 35.9499 20.5748 35.7812 20.9576 35.6582C21.345 35.5306 21.787 35.4668 22.2838 35.4668C22.7304 35.4668 23.1451 35.5215 23.5279 35.6309C23.9153 35.7402 24.2503 35.902 24.5328 36.1162C24.8154 36.3304 25.0364 36.6016 25.1959 36.9297C25.3554 37.2533 25.4352 37.6292 25.4352 38.0576V41.2295C25.4352 41.626 25.4602 41.9541 25.5104 42.2139C25.5605 42.4736 25.6334 42.6969 25.7291 42.8838V43H23.8014ZM21.9898 41.667C22.1812 41.667 22.359 41.6442 22.523 41.5986C22.6871 41.5531 22.8352 41.4938 22.9674 41.4209C23.0995 41.348 23.2135 41.266 23.3092 41.1748C23.4049 41.0791 23.4801 40.9834 23.5348 40.8877V39.6162H22.5641C22.2678 39.6162 22.0149 39.6458 21.8053 39.7051C21.5956 39.7598 21.4247 39.8395 21.2926 39.9443C21.1604 40.0446 21.0624 40.1676 20.9986 40.3135C20.9348 40.4548 20.9029 40.6097 20.9029 40.7783C20.9029 41.0335 20.9918 41.2454 21.1695 41.4141C21.3518 41.5827 21.6253 41.667 21.9898 41.667ZM33.6 35.4668C33.8871 35.4668 34.1514 35.4873 34.393 35.5283C34.6391 35.5648 34.8373 35.6058 34.9877 35.6514L34.7074 37.5449C34.4568 37.4857 34.1993 37.4424 33.935 37.415C33.6752 37.3831 33.4268 37.3672 33.1898 37.3672C32.6566 37.3672 32.2283 37.4697 31.9047 37.6748C31.5857 37.8799 31.3464 38.1738 31.1869 38.5566V43H29.2865V35.6035H31.057L31.1459 36.8135C31.4467 36.3942 31.8067 36.0661 32.226 35.8291C32.6452 35.5876 33.1033 35.4668 33.6 35.4668ZM39.1193 35.6035L39.2355 36.6289C39.4999 36.2598 39.8212 35.9749 40.1994 35.7744C40.5777 35.5693 40.9969 35.4668 41.4572 35.4668C41.8309 35.4668 42.1727 35.5215 42.4826 35.6309C42.7925 35.7402 43.0591 35.9157 43.2824 36.1572C43.5103 36.3942 43.6857 36.7018 43.8088 37.0801C43.9364 37.4538 44.0002 37.9095 44.0002 38.4473V43H42.0998V38.4746C42.0998 38.1829 42.0656 37.9437 41.9973 37.7568C41.9335 37.5654 41.84 37.415 41.717 37.3057C41.5939 37.1963 41.4458 37.1211 41.2727 37.0801C41.0995 37.0345 40.9035 37.0117 40.6848 37.0117C40.3612 37.0117 40.0855 37.0778 39.8576 37.21C39.6298 37.3376 39.4452 37.5153 39.3039 37.7432V43H37.3967V35.6035H39.1193Z" fill="white"/>
<path d="M23.5 16.5L11.191 11.583L11.95 29.7H8.65L9.442 10.8735L7 9.90005L23.5 3.30005L40 9.90005L23.5 16.5ZM23.5 8.25005C22.5925 8.25005 21.85 8.61305 21.85 9.07505C21.85 9.53705 22.5925 9.90005 23.5 9.90005C24.4075 9.90005 25.15 9.53705 25.15 9.07505C25.15 8.61305 24.4075 8.25005 23.5 8.25005ZM23.5 18.15L32.6905 14.4705C33.862 16.0215 34.6705 17.886 34.9345 19.9155C34.4395 19.8495 33.928 19.8 33.4 19.8C29.1925 19.8 25.513 22.0605 23.5 25.4265C22.4782 23.7118 21.0287 22.2917 19.2933 21.3055C17.5579 20.3192 15.5961 19.8004 13.6 19.8C13.072 19.8 12.5605 19.8495 12.0655 19.9155C12.3295 17.886 13.138 16.0215 14.3095 14.4705L23.5 18.15Z" fill="white"/>
</svg>
