<svg width="181" height="63" viewBox="0 0 181 63" fill="none" xmlns="http://www.w3.org/2000/svg">
<path d="M8.35832 28.7841C8.21014 29.1362 7.89491 29.3432 7.56596 29.3432C7.44234 29.3432 7.3167 29.3139 7.19727 29.2523L3.3234 27.251C2.88612 27.025 2.69687 26.4491 2.90079 25.9647C3.10463 25.4802 3.62447 25.2704 4.06184 25.4965L7.93571 27.4978C8.37299 27.7237 8.56223 28.2996 8.35832 28.7841ZM6.48695 11.3544H6.65724V18.2291C6.65724 18.7637 7.04839 19.197 7.53093 19.197C8.01347 19.197 8.40462 18.7637 8.40462 18.2291V11.3544H17.1139C19.9395 11.3544 22.2384 8.8076 22.2384 5.67727C22.2384 5.14268 21.8473 4.70933 21.3647 4.70933C20.8822 4.70933 20.491 5.14268 20.491 5.67727C20.491 7.74025 18.9761 9.41856 17.1139 9.41856H6.48695C4.62485 9.41856 3.10987 7.74025 3.10987 5.67727C3.10987 3.6142 4.62485 1.93588 6.48695 1.93588H11.4071C10.624 2.92309 10.1495 4.21171 10.1495 5.61978C10.1495 6.15437 10.5406 6.58772 11.0232 6.58772C11.5057 6.58772 11.8969 6.15437 11.8969 5.61978C11.8969 3.58845 13.4118 1.93588 15.2739 1.93588H27.7407C29.6028 1.93588 31.1177 3.6142 31.1177 5.67727C31.1177 7.74025 29.6028 9.41856 27.7407 9.41856H23.49C23.0074 9.41856 22.6163 9.85191 22.6163 10.3865C22.6163 10.9211 23.0074 11.3544 23.49 11.3544H25.8232V18.2291C25.8232 18.7637 26.2143 19.197 26.6969 19.197C27.1794 19.197 27.5706 18.7637 27.5706 18.2291V11.3544H27.7408C30.5664 11.3544 32.8652 8.8076 32.8652 5.67727C32.8651 2.54685 30.5664 0 27.7407 0H6.48695C3.66134 0 1.36248 2.54685 1.36248 5.67727C1.36248 8.80769 3.66134 11.3544 6.48695 11.3544ZM31.0082 24.853C30.5666 24.6373 30.0509 24.8593 29.8564 25.3486C29.723 25.6842 29.5295 25.9193 29.2813 26.0474L27.1433 27.152C26.8973 27.279 26.6128 27.293 26.2981 27.1935C25.8341 27.0468 25.3506 27.3445 25.2181 27.8585C25.0857 28.3726 25.3544 28.9083 25.8184 29.055C26.1138 29.1484 26.4078 29.195 26.6955 29.195C27.1097 29.195 27.5104 29.0985 27.8818 28.9066L30.0197 27.802C30.654 27.4745 31.1504 26.896 31.4554 26.1291C31.6501 25.6398 31.4498 25.0684 31.0082 24.853ZM8.96641 25.0489L5.09254 23.0477C4.65508 22.8216 4.13532 23.0314 3.93149 23.5159C3.72757 24.0003 3.91681 24.5762 4.35409 24.8022L8.22796 26.8034C8.34739 26.8651 8.47303 26.8943 8.59666 26.8943C8.92569 26.8943 9.24083 26.6873 9.38901 26.3352C9.59293 25.8507 9.40369 25.2748 8.96641 25.0489ZM33.9516 27.3433C33.5366 28.6067 32.7057 29.6134 31.6121 30.1784L28.4975 31.7874C27.404 32.3524 26.1739 32.4104 25.0335 31.9504C24.1735 31.6036 23.4452 30.9948 22.9202 30.1965L19.4826 31.9724L30.7454 37.7908C31.1827 38.0167 31.3719 38.5926 31.168 39.0771C31.0198 39.4292 30.7046 39.6362 30.3756 39.6362C30.2519 39.6362 30.1264 39.6069 30.0069 39.5453L17.4153 33.0403L4.87359 39.5195C4.4364 39.7456 3.91646 39.5359 3.71254 39.0513C3.50862 38.5669 3.69786 37.991 4.13515 37.765L15.3479 31.9724L11.9604 30.2224C11.4355 31.0206 10.7072 31.6295 9.847 31.9764C8.70674 32.436 7.4765 32.3783 6.38298 31.8133L1.47257 29.2765C0.197939 28.6179 -0.355545 26.9332 0.238828 25.521L1.91361 21.5419C2.20079 20.8596 2.71216 20.3415 3.35363 20.0828C3.99509 19.8241 4.68767 19.8569 5.30336 20.175L10.2137 22.7118C11.3073 23.2767 12.1381 24.2835 12.5531 25.5468C12.8661 26.4996 12.9133 27.5092 12.6987 28.4678L17.4152 30.9044L22.1818 28.4419C21.6719 26.1598 22.6725 23.716 24.6666 22.6859L27.781 21.0768C30.0462 19.9069 32.7481 20.9962 33.8042 23.5054C34.3143 24.7171 34.3666 26.08 33.9516 27.3433ZM10.9112 26.209C10.6558 25.4316 10.1459 24.8127 9.47533 24.4664L4.56492 21.9296C4.372 21.8301 4.15411 21.82 3.95132 21.902C3.74845 21.9838 3.58725 22.1465 3.49726 22.3601L1.82248 26.3392C1.63525 26.784 1.80955 27.3148 2.21101 27.5221L7.12143 30.0589C7.79199 30.4052 8.54764 30.4401 9.24939 30.1573C9.95106 29.8744 10.5096 29.3095 10.8223 28.5666C11.135 27.8236 11.1665 26.9863 10.9112 26.209ZM32.2207 24.3236C31.5717 22.7818 29.9116 22.1122 28.5197 22.8313L25.4053 24.4403C24.0524 25.1393 23.4437 26.8972 24.007 28.4111C24.0302 28.45 24.1028 28.6225 24.1148 28.6672C24.4359 29.3475 24.9701 29.8646 25.6312 30.1312C26.333 30.4141 27.0886 30.3792 27.759 30.0327L30.8737 28.4236C31.5443 28.0772 32.0543 27.4584 32.3096 26.681C32.5649 25.9039 32.5334 25.0666 32.2207 24.3236Z" fill="white"/>
<path d="M59.6016 32.3727C60.0954 32.3727 60.5651 32.3005 61.0107 32.1559C61.4564 32.0114 61.8478 31.8067 62.1851 31.5417C62.5223 31.2767 62.7812 30.9575 62.9619 30.5842C63.1546 30.2108 63.2389 29.7953 63.2148 29.3376H67.9482C67.9723 30.3493 67.7616 31.2888 67.3159 32.1559C66.8823 33.0231 66.2861 33.7699 65.5273 34.3962C64.7686 35.0225 63.8833 35.5163 62.8716 35.8776C61.8719 36.2269 60.812 36.4016 59.6919 36.4016C58.1743 36.4016 56.8434 36.1486 55.6992 35.6428C54.555 35.1249 53.5975 34.4203 52.8267 33.529C52.0679 32.6377 51.4897 31.5959 51.0923 30.4035C50.7069 29.1991 50.5142 27.9103 50.5142 26.5373V25.9953C50.5142 24.6223 50.7069 23.3395 51.0923 22.1472C51.4777 20.9427 52.0558 19.8949 52.8267 19.0036C53.5975 18.1123 54.549 17.4077 55.6812 16.8898C56.8254 16.3719 58.1502 16.113 59.6558 16.113C60.8602 16.113 61.9743 16.2936 62.998 16.655C64.0218 17.0163 64.901 17.5282 65.6357 18.1906C66.3825 18.841 66.9606 19.6359 67.3701 20.5754C67.7796 21.5028 67.9723 22.5446 67.9482 23.7009H63.2148C63.2389 23.2191 63.1667 22.7614 62.998 22.3278C62.8294 21.8942 62.5825 21.5209 62.2573 21.2077C61.9321 20.8946 61.5407 20.6476 61.083 20.467C60.6253 20.2743 60.1255 20.1779 59.5835 20.1779C58.7886 20.1779 58.1322 20.3405 57.6143 20.6657C57.0964 20.9909 56.6808 21.4245 56.3677 21.9665C56.0666 22.5085 55.8498 23.1288 55.7173 23.8273C55.5968 24.5259 55.5366 25.2486 55.5366 25.9953V26.5373C55.5366 27.2961 55.5968 28.0308 55.7173 28.7414C55.8377 29.44 56.0485 30.0602 56.3496 30.6022C56.6628 31.1322 57.0783 31.5598 57.5962 31.8849C58.1261 32.2101 58.7946 32.3727 59.6016 32.3727ZM78.1919 19.1662C78.8423 18.2147 79.6312 17.468 80.5586 16.926C81.498 16.384 82.5459 16.113 83.7021 16.113C84.7259 16.113 85.6654 16.2696 86.5205 16.5827C87.3757 16.8838 88.1104 17.3596 88.7246 18.0099C89.3389 18.6603 89.8146 19.4974 90.1519 20.5212C90.5011 21.5329 90.6758 22.7554 90.6758 24.1887V36.0222H85.6533V24.1525C85.6533 23.454 85.563 22.8517 85.3823 22.3459C85.2137 21.84 84.9668 21.4305 84.6416 21.1174C84.3164 20.8042 83.925 20.5754 83.4673 20.4308C83.0096 20.2743 82.4917 20.196 81.9136 20.196C81.0705 20.196 80.3358 20.3465 79.7095 20.6476C79.0952 20.9488 78.5894 21.3703 78.1919 21.9123V36.0222H73.1694V8.27216H78.1919V19.1662ZM104.876 36.3835C103.37 36.3835 102.003 36.1366 100.775 35.6428C99.5464 35.1489 98.4925 34.4805 97.6133 33.6374C96.734 32.7822 96.0535 31.7826 95.5718 30.6384C95.1021 29.4821 94.8672 28.2476 94.8672 26.9348V26.2121C94.8672 24.7186 95.1021 23.3576 95.5718 22.1291C96.0415 20.8885 96.6979 19.8226 97.541 18.9313C98.3841 18.0401 99.3838 17.3475 100.54 16.8537C101.696 16.3599 102.955 16.113 104.316 16.113C105.725 16.113 106.978 16.3478 108.074 16.8176C109.182 17.2752 110.115 17.9256 110.874 18.7687C111.645 19.6118 112.229 20.6296 112.626 21.822C113.024 23.0023 113.223 24.3091 113.223 25.7424V27.8742H99.9619C100.058 28.5366 100.251 29.1449 100.54 29.6989C100.841 30.2409 101.221 30.7106 101.678 31.1081C102.136 31.5056 102.66 31.8127 103.25 32.0295C103.84 32.2463 104.485 32.3547 105.183 32.3547C105.677 32.3547 106.165 32.3065 106.646 32.2101C107.14 32.1138 107.61 31.9753 108.056 31.7946C108.501 31.6019 108.917 31.367 109.302 31.09C109.688 30.813 110.025 30.4878 110.314 30.1144L112.825 32.8244C112.512 33.27 112.103 33.7097 111.597 34.1432C111.103 34.5648 110.513 34.9442 109.826 35.2814C109.152 35.6066 108.399 35.8716 107.568 36.0764C106.737 36.2811 105.84 36.3835 104.876 36.3835ZM104.28 20.1779C103.714 20.1779 103.196 20.2803 102.726 20.485C102.256 20.6778 101.841 20.9608 101.479 21.3342C101.13 21.7075 100.835 22.1532 100.594 22.6711C100.353 23.189 100.173 23.7671 100.052 24.4055H108.291V24.008C108.266 23.478 108.164 22.9782 107.983 22.5085C107.803 22.0388 107.544 21.6353 107.207 21.298C106.869 20.9488 106.454 20.6778 105.96 20.485C105.478 20.2803 104.918 20.1779 104.28 20.1779ZM122.473 36.0222V20.1779H117.342V16.4743H122.473V15.4084C122.473 14.1196 122.677 12.9815 123.087 11.9938C123.496 11.0062 124.081 10.1752 124.839 9.50067C125.598 8.82619 126.52 8.32033 127.604 7.98309C128.688 7.63381 129.898 7.45917 131.235 7.45917C131.656 7.45917 132.06 7.47723 132.445 7.51337C132.843 7.53746 133.228 7.57359 133.602 7.62177C133.975 7.66994 134.348 7.72414 134.722 7.78436C135.107 7.84458 135.505 7.91083 135.914 7.98309L135.589 11.9216C135.131 11.8252 134.613 11.7409 134.035 11.6686C133.457 11.5964 132.777 11.5602 131.994 11.5602C130.428 11.5602 129.29 11.8915 128.579 12.5539C127.868 13.2163 127.513 14.1678 127.513 15.4084V16.4743H134.559V20.1779H127.513V36.0222H122.473ZM157.178 9.71747L157.196 27.1516C157.196 28.621 156.992 29.9278 156.582 31.072C156.185 32.2162 155.6 33.1857 154.83 33.9807C154.071 34.7635 153.137 35.3597 152.029 35.7692C150.933 36.1787 149.681 36.3835 148.271 36.3835C146.947 36.3835 145.748 36.1787 144.676 35.7692C143.616 35.3597 142.707 34.7635 141.948 33.9807C141.189 33.1978 140.599 32.2342 140.178 31.09C139.768 29.9338 139.563 28.621 139.563 27.1516L139.582 9.71747H144.658L144.676 27.1516C144.688 28.8498 144.995 30.1325 145.598 30.9997C146.212 31.8669 147.103 32.3005 148.271 32.3005C149.512 32.3005 150.458 31.8669 151.108 30.9997C151.77 30.1325 152.108 28.8498 152.12 27.1516L152.138 9.71747H157.178ZM179.617 26.4289C179.617 27.8501 179.448 29.169 179.111 30.3854C178.786 31.6019 178.298 32.6558 177.647 33.5471C177.009 34.4263 176.214 35.1188 175.263 35.6247C174.311 36.1306 173.221 36.3835 171.993 36.3835C170.945 36.3835 170.023 36.2028 169.229 35.8415C168.434 35.4802 167.741 34.9743 167.151 34.3239V43.5378H162.128V16.4743H166.771L166.952 18.3893C167.554 17.6667 168.265 17.1066 169.084 16.7092C169.903 16.3117 170.861 16.113 171.957 16.113C173.197 16.113 174.293 16.3539 175.245 16.8356C176.196 17.3054 176.997 17.9798 177.647 18.8591C178.298 19.7263 178.786 20.7741 179.111 22.0026C179.448 23.2191 179.617 24.5681 179.617 26.0495V26.4289ZM174.594 26.0495C174.594 25.2305 174.516 24.4657 174.359 23.7551C174.215 23.0324 173.98 22.4121 173.655 21.8942C173.342 21.3643 172.932 20.9488 172.426 20.6476C171.932 20.3465 171.33 20.196 170.62 20.196C169.74 20.196 169.018 20.3706 168.452 20.7199C167.898 21.0571 167.464 21.5389 167.151 22.1652V30.3312C167.464 30.9455 167.898 31.4393 168.452 31.8127C169.018 32.174 169.752 32.3547 170.656 32.3547C171.366 32.3547 171.969 32.1981 172.462 31.8849C172.968 31.5718 173.378 31.1442 173.691 30.6022C174.004 30.0602 174.233 29.4339 174.377 28.7233C174.522 28.0007 174.594 27.2359 174.594 26.4289V26.0495Z" fill="white"/>
</svg>