<svg width="167" height="41" viewBox="0 0 167 41" fill="none" xmlns="http://www.w3.org/2000/svg">
<text transform="translate(42 3)" fill="black" xml:space="preserve" style="white-space: pre" font-family="Roboto Mono" font-size="29" font-weight="bold" letter-spacing="0em"><tspan x="0" y="30.2644">chefUp</tspan></text>
<path d="M8.79081 29.7136C8.63497 30.0771 8.30343 30.2907 7.95746 30.2907C7.82744 30.2907 7.6953 30.2605 7.56969 30.1969L3.49537 28.131C3.03546 27.8977 2.83642 27.3032 3.0509 26.8031C3.26527 26.303 3.81202 26.0864 4.27202 26.3198L8.34634 28.3857C8.80625 28.619 9.00529 29.2135 8.79081 29.7136ZM6.82262 11.7211H7.00171V18.8177C7.00171 19.3696 7.4131 19.8169 7.92061 19.8169C8.42812 19.8169 8.83952 19.3696 8.83952 18.8177V11.7211H17.9995C20.9713 11.7211 23.3891 9.09201 23.3891 5.8606C23.3891 5.30875 22.9777 4.8614 22.4702 4.8614C21.9627 4.8614 21.5513 5.30875 21.5513 5.8606C21.5513 7.9902 19.958 9.72271 17.9995 9.72271H6.82262C4.86416 9.72271 3.27079 7.9902 3.27079 5.8606C3.27079 3.73091 4.86416 1.9984 6.82262 1.9984H11.9973C11.1737 3.01748 10.6747 4.34772 10.6747 5.80125C10.6747 6.35311 11.086 6.80045 11.5936 6.80045C12.1011 6.80045 12.5125 6.35311 12.5125 5.80125C12.5125 3.70433 14.1057 1.9984 16.0642 1.9984H29.1762C31.1346 1.9984 32.7279 3.73091 32.7279 5.8606C32.7279 7.9902 31.1346 9.72271 29.1762 9.72271H24.7055C24.1979 9.72271 23.7866 10.17 23.7866 10.7219C23.7866 11.2738 24.1979 11.7211 24.7055 11.7211H27.1594V18.8177C27.1594 19.3696 27.5708 19.8169 28.0783 19.8169C28.5858 19.8169 28.9972 19.3696 28.9972 18.8177V11.7211H29.1763C32.1481 11.7211 34.5658 9.09201 34.5658 5.8606C34.5657 2.62909 32.148 0 29.1762 0H6.82262C3.8508 0 1.43299 2.62909 1.43299 5.8606C1.43299 9.09211 3.8508 11.7211 6.82262 11.7211ZM32.6127 25.6555C32.1483 25.4329 31.6059 25.662 31.4013 26.1671C31.261 26.5135 31.0575 26.7563 30.7965 26.8885L28.5478 28.0288C28.2891 28.1599 27.9899 28.1743 27.6589 28.0716C27.1709 27.9202 26.6623 28.2275 26.523 28.7582C26.3837 29.2888 26.6664 29.8418 27.1543 29.9933C27.465 30.0897 27.7743 30.1377 28.0768 30.1377C28.5125 30.1377 28.934 30.0381 29.3245 29.8401L31.573 28.6998C32.2402 28.3617 32.7623 27.7645 33.0831 26.9729C33.2878 26.4678 33.0772 25.878 32.6127 25.6555ZM9.43037 25.8578L5.35605 23.7919C4.89596 23.5585 4.3493 23.7751 4.13492 24.2752C3.92045 24.7753 4.11949 25.3699 4.5794 25.6031L8.65371 27.6689C8.77933 27.7327 8.91147 27.7627 9.04149 27.7627C9.38755 27.7627 9.719 27.5491 9.87484 27.1856C10.0893 26.6855 9.89028 26.091 9.43037 25.8578ZM35.7084 28.2263C35.2719 29.5304 34.398 30.5697 33.2478 31.1529L29.972 32.8139C28.822 33.3971 27.5282 33.457 26.3289 32.9822C25.4243 32.6242 24.6583 31.9957 24.1062 31.1716L20.4907 33.0048L32.3363 39.0111C32.7962 39.2443 32.9952 39.8389 32.7808 40.339C32.6249 40.7025 32.2934 40.9161 31.9474 40.9161C31.8173 40.9161 31.6852 40.8859 31.5596 40.8223L18.3164 34.1073L5.12577 40.7957C4.66596 41.0291 4.11912 40.8126 3.90465 40.3124C3.69018 39.8123 3.88921 39.2178 4.34912 38.9846L16.1421 33.0048L12.5793 31.1983C12.0273 32.0223 11.2612 32.6509 10.3565 33.0089C9.15727 33.4835 7.86337 33.4238 6.71327 32.8406L1.54877 30.2219C0.208181 29.542 -0.373943 27.8029 0.251186 26.3451L2.01263 22.2376C2.31467 21.5332 2.8525 20.9984 3.52716 20.7313C4.20182 20.4643 4.93023 20.4981 5.57778 20.8265L10.7422 23.4452C11.8924 24.0283 12.7662 25.0677 13.2026 26.3718C13.5319 27.3554 13.5815 28.3975 13.3558 29.387L18.3163 31.9023L23.3296 29.3604C22.7933 27.0046 23.8457 24.4819 25.9429 23.4184L29.2185 21.7574C31.6009 20.5497 34.4426 21.6742 35.5534 24.2645C36.0899 25.5152 36.1449 26.9222 35.7084 28.2263ZM11.4758 27.0553C11.2072 26.2529 10.6709 25.614 9.96563 25.2565L4.80113 22.6378C4.59823 22.535 4.36906 22.5246 4.15578 22.6093C3.94241 22.6937 3.77288 22.8617 3.67823 23.0822L1.91679 27.1897C1.71987 27.6489 1.90319 28.1968 2.32542 28.4108L7.48992 31.0295C8.19518 31.387 8.98994 31.4231 9.728 31.1311C10.466 30.8391 11.0534 30.256 11.3823 29.4891C11.7112 28.7221 11.7443 27.8578 11.4758 27.0553ZM33.8879 25.1091C33.2054 23.5175 31.4594 22.8262 29.9955 23.5686L26.7199 25.2296C25.297 25.9511 24.6568 27.7657 25.2493 29.3286C25.2736 29.3688 25.35 29.5468 25.3627 29.5929C25.7003 30.2952 26.2622 30.829 26.9575 31.1042C27.6956 31.3962 28.4903 31.3602 29.1954 31.0026L32.4713 29.3415C33.1765 28.9839 33.7129 28.3451 33.9815 27.5426C34.25 26.7404 34.2168 25.8761 33.8879 25.1091Z" fill="#DE561C"/>
</svg>
