<svg width="19" height="19" viewBox="0 0 19 19" fill="none" xmlns="http://www.w3.org/2000/svg">
<path d="M0.999973 18.567C1.08097 18.567 1.16197 18.557 1.24197 18.537L5.24197 17.537C5.41797 17.493 5.57897 17.402 5.70697 17.274L18 4.981C18.378 4.603 18.586 4.101 18.586 3.567C18.586 3.033 18.378 2.531 18 2.153L16.414 0.567C15.658 -0.189 14.342 -0.189 13.586 0.567L1.29297 12.86C1.16504 12.9881 1.07416 13.1484 1.02997 13.324L0.0299737 17.324C-0.00696372 17.4714 -0.00980072 17.6254 0.0216781 17.7741C0.053157 17.9228 0.118123 18.0624 0.211639 18.1822C0.305155 18.302 0.424759 18.399 0.561361 18.4657C0.697963 18.5323 0.847968 18.567 0.999973 18.567ZM15 1.981L16.586 3.567L15 5.153L13.414 3.567L15 1.981ZM2.90297 14.078L12 4.981L13.586 6.567L4.48797 15.664L2.37397 16.192L2.90297 14.078Z" fill="#DE561C"/>
</svg>
