<svg width="26" height="26" viewBox="0 0 26 26" fill="none" xmlns="http://www.w3.org/2000/svg">
<path d="M9.813 0.509277C8.52439 0.509151 7.24837 0.753809 6.0578 1.22928C4.86724 1.70475 3.78546 2.40172 2.87422 3.2804C1.96299 4.15907 1.24015 5.20224 0.74699 6.35033C0.253828 7.49842 4.42756e-08 8.72895 5.09679e-08 9.97165C-0.000131295 11.2144 0.2536 12.4451 0.746703 13.5933C1.23981 14.7415 1.96262 15.7847 2.87387 16.6635C3.78512 17.5423 4.86695 18.2393 6.05757 18.7149C7.2482 19.1904 8.5243 19.4351 9.813 19.435C12.103 19.435 14.206 18.6529 15.876 17.3857L16.751 18.2295C16.5713 18.5662 16.5077 18.9493 16.5694 19.3233C16.6311 19.6972 16.8149 20.0424 17.094 20.3087L21.688 24.7689C22.401 25.4574 23.568 25.4574 24.282 24.7689L25.157 23.9251C25.4996 23.5926 25.6919 23.143 25.6919 22.6743C25.6919 22.2056 25.4996 21.7559 25.157 21.4235L20.532 16.9932C20.2539 16.7258 19.8938 16.5521 19.5052 16.4979C19.1166 16.4437 18.7202 16.5119 18.375 16.6923L17.5 15.8485C18.6453 14.4547 19.3602 12.7778 19.5626 11.0101C19.765 9.24243 19.4467 7.45554 18.6443 5.85431C17.8418 4.25308 16.5877 2.90234 15.0257 1.95696C13.4638 1.01159 11.6571 0.509849 9.813 0.509277ZM9.813 2.25671C11.9347 2.25671 13.9696 3.06953 15.4699 4.51636C16.9701 5.96319 17.813 7.92552 17.813 9.97165C17.813 12.0178 16.9701 13.9801 15.4699 15.4269C13.9696 16.8738 11.9347 17.6866 9.813 17.6866C7.69127 17.6866 5.65644 16.8738 4.15615 15.4269C2.65586 13.9801 1.813 12.0178 1.813 9.97165C1.813 7.92552 2.65586 5.96319 4.15615 4.51636C5.65644 3.06953 7.69127 2.25671 9.813 2.25671ZM4.75 7.53083C4.21663 8.36396 3.93538 9.32428 3.938 10.3034C3.93682 10.9963 4.07747 11.6827 4.35189 12.3231C4.62631 12.9635 5.02911 13.5453 5.53719 14.0353C6.04527 14.5253 6.64864 14.9137 7.3127 15.1784C7.97677 15.443 8.68847 15.5787 9.407 15.5775C10.5366 15.5753 11.6382 15.2386 12.563 14.6131C12.3137 14.6354 12.0634 14.6451 11.813 14.6421C10.8849 14.6444 9.96546 14.4698 9.10753 14.1283C8.2496 13.7869 7.47009 13.2854 6.81377 12.6525C6.15745 12.0197 5.63726 11.268 5.28309 10.4407C4.92892 9.6134 4.74776 8.72675 4.75 7.83172C4.75 7.73142 4.745 7.63113 4.75 7.53083Z" fill="white"/>
</svg>
