<svg width="64" height="42" viewBox="0 0 40 42" fill="none" xmlns="http://www.w3.org/2000/svg">
<path d="M38 10.5669C38 6.85972 34.8607 3.84372 31.0019 3.84372C30.8342 3.84372 30.665 3.84977 30.4949 3.86198C28.8344 1.46435 26.0212 0 23 0C19.9789 0 17.1657 1.46465 15.5052 3.86198C15.3351 3.84977 15.1659 3.84372 14.9982 3.84372C11.1393 3.84372 8 6.85972 8 10.5669C8 13.949 10.6134 16.7544 14.0018 17.2205V26.512C14.0018 27.8839 15.1639 29 16.5924 29H29.4076C30.8362 29 31.9982 27.8838 31.9982 26.512V17.2205C35.3867 16.7544 38 13.9489 38 10.5669ZM29.4076 27.0861H16.5925C16.2686 27.0861 15.9947 26.8231 15.9947 26.5119V17.2214C16.9709 17.0886 17.8978 16.7603 18.7338 16.2499C20.0162 16.916 21.4747 17.2899 23 17.2899C24.5253 17.2899 25.9837 16.916 27.2661 16.25C28.1023 16.7603 29.0293 17.0886 30.0054 17.2214V26.5119C30.0054 26.8231 29.7316 27.0861 29.4076 27.0861ZM31.0019 15.376C30.3312 15.376 29.6828 15.2501 29.0803 15.0082C30.2929 13.9406 31.2096 12.5529 31.6699 10.9581C31.8168 10.4488 31.5061 9.92142 30.9758 9.78023C30.4454 9.63913 29.8964 9.93763 29.7493 10.4468C28.9119 13.3491 26.1365 15.376 23 15.376C19.8635 15.376 17.0882 13.3491 16.2507 10.4468C16.1038 9.93753 15.555 9.63913 15.0242 9.78023C14.4939 9.92132 14.1832 10.4488 14.3301 10.9581C14.7903 12.5529 15.7071 13.9407 16.9197 15.0082C16.3172 15.2501 15.6688 15.376 14.9982 15.376C12.2382 15.376 9.99288 13.2186 9.99288 10.5669C9.99288 7.91514 12.2383 5.75762 14.9982 5.75762C15.2772 5.75762 15.5644 5.78164 15.8519 5.8289C16.267 5.89686 16.6826 5.70714 16.889 5.35426C18.1299 3.23218 20.4715 1.9139 22.9999 1.9139C25.5283 1.9139 27.8699 3.23228 29.111 5.35436C29.3173 5.70724 29.7327 5.89696 30.1481 5.8289C30.4356 5.78164 30.7228 5.75762 31.0017 5.75762C33.7616 5.75762 36.0069 7.91514 36.0069 10.5669C36.0072 13.2186 33.7618 15.376 31.0019 15.376Z" fill="white"/>
<path d="M8.20996 32.6123H5.14062V41H3.21289V32.6123H0.18457V31.0469H8.20996V32.6123ZM13.6609 41.1367C13.0913 41.1367 12.574 41.0433 12.1092 40.8564C11.6443 40.6696 11.2456 40.4167 10.9129 40.0977C10.5802 39.7741 10.3227 39.3958 10.1404 38.9629C9.9627 38.5254 9.87383 38.0583 9.87383 37.5615V37.2881C9.87383 36.723 9.9627 36.208 10.1404 35.7432C10.3182 35.2738 10.5665 34.8704 10.8855 34.5332C11.2046 34.196 11.5828 33.9339 12.0203 33.7471C12.4578 33.5602 12.934 33.4668 13.449 33.4668C13.9822 33.4668 14.4562 33.5557 14.8709 33.7334C15.2902 33.9066 15.6434 34.1527 15.9305 34.4717C16.2221 34.7907 16.4432 35.1758 16.5936 35.627C16.7439 36.0736 16.8191 36.568 16.8191 37.1104V37.917H11.8016C11.838 38.1676 11.9109 38.3978 12.0203 38.6074C12.1342 38.8125 12.2778 38.9902 12.451 39.1406C12.6242 39.291 12.8224 39.4072 13.0457 39.4893C13.269 39.5713 13.5128 39.6123 13.7771 39.6123C13.964 39.6123 14.1486 39.5941 14.3309 39.5576C14.5177 39.5212 14.6954 39.4688 14.8641 39.4004C15.0327 39.3275 15.1899 39.2386 15.3357 39.1338C15.4816 39.029 15.6092 38.9059 15.7186 38.7646L16.6687 39.79C16.5503 39.9587 16.3953 40.125 16.2039 40.2891C16.0171 40.4486 15.7937 40.5921 15.534 40.7197C15.2788 40.8428 14.9939 40.943 14.6795 41.0205C14.365 41.098 14.0255 41.1367 13.6609 41.1367ZM13.4354 35.0049C13.2212 35.0049 13.0252 35.0436 12.8475 35.1211C12.6697 35.194 12.5125 35.3011 12.3758 35.4424C12.2436 35.5837 12.132 35.7523 12.0408 35.9482C11.9497 36.1442 11.8813 36.363 11.8357 36.6045H14.9529V36.4541C14.9438 36.2536 14.9051 36.0645 14.8367 35.8867C14.7684 35.709 14.6704 35.5563 14.5428 35.4287C14.4152 35.2965 14.2579 35.194 14.0711 35.1211C13.8888 35.0436 13.6769 35.0049 13.4354 35.0049ZM23.8014 41C23.7558 40.9089 23.7171 40.804 23.6852 40.6855C23.6533 40.5671 23.6259 40.4417 23.6031 40.3096C23.4983 40.4235 23.3775 40.5306 23.2408 40.6309C23.1041 40.7311 22.9514 40.82 22.7828 40.8975C22.6187 40.9704 22.4365 41.0273 22.2359 41.0684C22.0354 41.1139 21.8189 41.1367 21.5865 41.1367C21.2083 41.1367 20.8596 41.082 20.5406 40.9727C20.2262 40.8633 19.955 40.7106 19.7271 40.5146C19.4993 40.3187 19.3215 40.0863 19.1939 39.8174C19.0663 39.5439 19.0025 39.2477 19.0025 38.9287C19.0025 38.1494 19.2919 37.5479 19.8707 37.124C20.454 36.6956 21.3222 36.4814 22.4752 36.4814H23.5348V36.0439C23.5348 35.6885 23.4186 35.4082 23.1861 35.2031C22.9537 34.9935 22.6187 34.8887 22.1812 34.8887C21.7939 34.8887 21.5113 34.973 21.3336 35.1416C21.1559 35.3057 21.067 35.5267 21.067 35.8047H19.1666C19.1666 35.4902 19.235 35.1917 19.3717 34.9092C19.513 34.6266 19.7158 34.3783 19.9801 34.1641C20.249 33.9499 20.5748 33.7812 20.9576 33.6582C21.345 33.5306 21.787 33.4668 22.2838 33.4668C22.7304 33.4668 23.1451 33.5215 23.5279 33.6309C23.9153 33.7402 24.2503 33.902 24.5328 34.1162C24.8154 34.3304 25.0364 34.6016 25.1959 34.9297C25.3554 35.2533 25.4352 35.6292 25.4352 36.0576V39.2295C25.4352 39.626 25.4602 39.9541 25.5104 40.2139C25.5605 40.4736 25.6334 40.6969 25.7291 40.8838V41H23.8014ZM21.9898 39.667C22.1812 39.667 22.359 39.6442 22.523 39.5986C22.6871 39.5531 22.8352 39.4938 22.9674 39.4209C23.0995 39.348 23.2135 39.266 23.3092 39.1748C23.4049 39.0791 23.4801 38.9834 23.5348 38.8877V37.6162H22.5641C22.2678 37.6162 22.0149 37.6458 21.8053 37.7051C21.5956 37.7598 21.4247 37.8395 21.2926 37.9443C21.1604 38.0446 21.0624 38.1676 20.9986 38.3135C20.9348 38.4548 20.9029 38.6097 20.9029 38.7783C20.9029 39.0335 20.9918 39.2454 21.1695 39.4141C21.3518 39.5827 21.6253 39.667 21.9898 39.667ZM31.5629 39.6191C31.7497 39.6191 31.9275 39.5918 32.0961 39.5371C32.2647 39.4824 32.4128 39.4049 32.5404 39.3047C32.668 39.2044 32.766 39.0837 32.8344 38.9424C32.9073 38.8011 32.9392 38.6439 32.9301 38.4707H34.7211C34.7302 38.8535 34.6505 39.209 34.4818 39.5371C34.3178 39.8652 34.0922 40.1478 33.8051 40.3848C33.518 40.6217 33.183 40.8086 32.8002 40.9453C32.4219 41.0775 32.0209 41.1436 31.5971 41.1436C31.0229 41.1436 30.5193 41.0479 30.0863 40.8564C29.6534 40.6605 29.2911 40.3939 28.9994 40.0566C28.7123 39.7194 28.4936 39.3252 28.3432 38.874C28.1973 38.4183 28.1244 37.9307 28.1244 37.4111V37.2061C28.1244 36.6865 28.1973 36.2012 28.3432 35.75C28.489 35.2943 28.7077 34.8978 28.9994 34.5605C29.2911 34.2233 29.6511 33.9567 30.0795 33.7607C30.5124 33.5648 31.0137 33.4668 31.5834 33.4668C32.0391 33.4668 32.4607 33.5352 32.848 33.6719C33.2354 33.8086 33.5681 34.0023 33.8461 34.2529C34.1286 34.499 34.3474 34.7998 34.5023 35.1553C34.6573 35.5062 34.7302 35.9004 34.7211 36.3379H32.9301C32.9392 36.1556 32.9118 35.9824 32.848 35.8184C32.7842 35.6543 32.6908 35.513 32.5678 35.3945C32.4447 35.276 32.2966 35.1826 32.1234 35.1143C31.9503 35.0413 31.7611 35.0049 31.5561 35.0049C31.2553 35.0049 31.0069 35.0664 30.8109 35.1895C30.615 35.3125 30.4577 35.4766 30.3393 35.6816C30.2253 35.8867 30.1433 36.1214 30.0932 36.3857C30.0476 36.6501 30.0248 36.9235 30.0248 37.2061V37.4111C30.0248 37.6982 30.0476 37.9762 30.0932 38.2451C30.1387 38.5094 30.2185 38.7441 30.3324 38.9492C30.4509 39.1497 30.6081 39.3115 30.8041 39.4346C31.0046 39.5576 31.2576 39.6191 31.5629 39.6191ZM39.2971 34.6221C39.5432 34.262 39.8417 33.9795 40.1926 33.7744C40.548 33.5693 40.9445 33.4668 41.382 33.4668C41.7694 33.4668 42.1249 33.526 42.4484 33.6445C42.772 33.7585 43.05 33.9385 43.2824 34.1846C43.5148 34.4307 43.6949 34.7474 43.8225 35.1348C43.9546 35.5176 44.0207 35.9801 44.0207 36.5225V41H42.1203V36.5088C42.1203 36.2445 42.0861 36.0166 42.0178 35.8252C41.954 35.6338 41.8605 35.4788 41.7375 35.3604C41.6145 35.2419 41.4663 35.1553 41.2932 35.1006C41.12 35.0413 40.924 35.0117 40.7053 35.0117C40.3863 35.0117 40.1083 35.0687 39.8713 35.1826C39.6389 35.2965 39.4475 35.4561 39.2971 35.6611V41H37.3967V30.5H39.2971V34.6221Z" fill="white"/>
</svg>
